Oswald--800.ufo
<glyph name="parenright" format="1">
  <advance width="713"/>
  <unicode hex="0029"/>
  <outline>
    <contour>
      <point x="75" y="-356" type="line"/>
      <point x="544" y="-360"/>
      <point x="595" y="117"/>
      <point x="595" y="651" type="curve" smooth="yes"/>
      <point x="595" y="1235"/>
      <point x="544" y="1681"/>
      <point x="75" y="1678" type="curve"/>
      <point x="75" y="1419" type="line"/>
      <point x="219" y="1419"/>
      <point x="259" y="1190"/>
      <point x="259" y="651" type="curve" smooth="yes"/>
      <point x="259" y="104"/>
      <point x="208" y="-97"/>
      <point x="75" y="-97" type="curve"/>
    </contour>
  </outline>
</glyph>
<glyph name="plus" format="1">
  <advance width="939"/>
  <unicode hex="002B"/>
  <outline>
    <contour>
      <point x="351" y="422" type="line"/>
      <point x="587" y="422" type="line"/>
      <point x="587" y="748" type="line"/>
      <point x="885" y="748" type="line"/>
      <point x="885" y="951" type="line"/>
      <point x="587" y="951" type="line"/>
      <point x="587" y="1266" type="line"/>
      <point x="351" y="1266" type="line"/>
      <point x="351" y="951" type="line"/>
      <point x="54" y="951" type="line"/>
      <point x="54" y="748" type="line"/>
      <point x="351" y="748" type="line"/>
    </contour>
  </outline>
</glyph>
<glyph name="F" format="1">
  <advance width="915"/>
  <unicode hex="0046"/>
  <outline>
    <contour>
      <point x="120" y="0" type="line"/>
      <point x="526" y="0" type="line"/>
      <point x="526" y="725" type="line"/>
      <point x="828" y="725" type="line"/>
      <point x="828" y="1007" type="line"/>
      <point x="526" y="1007" type="line"/>
      <point x="526" y="1386" type="line"/>
      <point x="861" y="1386" type="line"/>
      <point x="861" y="1658" type="line"/>
      <point x="120" y="1658" type="line"/>
    </contour>
  </outline>
</glyph>
<glyph name="O" format="1">
  <advance width="1227"/>
  <unicode hex="004F"/>
  <outline>
    <contour>
      <point x="612" y="255" type="curve" smooth="yes"/>
      <point x="518" y="255"/>
      <point x="517" y="350"/>
      <point x="517" y="420" type="curve" smooth="yes"/>
      <point x="517" y="1239" type="line" smooth="yes"/>
      <point x="517" y="1310"/>
      <point x="518" y="1403"/>
      <point x="612" y="1403" type="curve" smooth="yes"/>
      <point x="705" y="1403"/>
      <point x="710" y="1310"/>
      <point x="710" y="1239" type="curve" smooth="yes"/>
      <point x="710" y="420" type="line" smooth="yes"/>
      <point x="710" y="350"/>
      <point x="705" y="255"/>
    </contour>
    <contour>
      <point x="612" y="-26" type="curve" smooth="yes"/>
      <point x="997" y="-26"/>
      <point x="1127" y="177"/>
      <point x="1127" y="523" type="curve" smooth="yes"/>
      <point x="1127" y="1135" type="line" smooth="yes"/>
      <point x="1127" y="1482"/>
      <point x="997" y="1684"/>
      <point x="612" y="1684" type="curve" smooth="yes"/>
      <point x="227" y="1684"/>
      <point x="100" y="1482"/>
      <point x="100" y="1135" type="curve" smooth="yes"/>
      <point x="100" y="523" type="line" smooth="yes"/>
      <point x="100" y="177"/>
      <point x="227" y="-26"/>
    </contour>
  </outline>
</glyph>
<glyph name="g" format="1">
  <advance width="1065"/>
  <unicode hex="0067"/>
  <outline>
    <contour>
      <point x="571" y="-352" type="curve" smooth="yes"/>
      <point x="922" y="-352"/>
      <point x="1020" y="-210"/>
      <point x="1020" y="-40" type="curve" smooth="yes"/>
      <point x="1020" y="118"/>
      <point x="950" y="206"/>
      <point x="697" y="243" type="curve" smooth="yes"/>
      <point x="582" y="259"/>
      <point x="481" y="272"/>
      <point x="415" y="283" type="curve" smooth="yes"/>
      <point x="346" y="295"/>
      <point x="307" y="308"/>
      <point x="302" y="326" type="curve" smooth="yes"/>
      <point x="296" y="349"/>
      <point x="314" y="378"/>
      <point x="340" y="410" type="curve"/>
      <point x="397" y="385"/>
      <point x="477" y="368"/>
      <point x="555" y="368" type="curve" smooth="yes"/>
      <point x="830" y="368"/>
      <point x="964" y="523"/>
      <point x="964" y="770" type="curve" smooth="yes"/>
      <point x="964" y="897"/>
      <point x="928" y="968"/>
      <point x="897" y="1006" type="curve"/>
      <point x="962" y="1044"/>
      <point x="1061" y="1092"/>
      <point x="1095" y="1104" type="curve"/>
      <point x="1011" y="1270" type="line"/>
      <point x="964" y="1247" type="line"/>
      <point x="907" y="1215"/>
      <point x="850" y="1163"/>
      <point x="803" y="1110" type="curve"/>
      <point x="745" y="1173"/>
      <point x="637" y="1206"/>
      <point x="525" y="1206" type="curve" smooth="yes"/>
      <point x="258" y="1206"/>
      <point x="86" y="1074"/>
      <point x="86" y="765" type="curve" smooth="yes"/>
      <point x="86" y="625"/>
      <point x="139" y="543"/>
      <point x="213" y="490" type="curve"/>
      <point x="123" y="420"/>
      <point x="40" y="347"/>
      <point x="63" y="245" type="curve" smooth="yes"/>
      <point x="75" y="193"/>
      <point x="114" y="155"/>
      <point x="224" y="112" type="curve"/>
      <point x="150" y="55"/>
      <point x="54" y="-23"/>
      <point x="54" y="-113" type="curve" smooth="yes"/>
      <point x="54" y="-336"/>
      <point x="395" y="-352"/>
    </contour>
    <contour>
      <point x="570" y="-137" type="curve" smooth="yes"/>
      <point x="451" y="-137"/>
      <point x="401" y="-108"/>
      <point x="401" y="-51" type="curve" smooth="yes"/>
      <point x="401" y="-16"/>
      <point x="422" y="25"/>
      <point x="442" y="57" type="curve"/>
      <point x="615" y="32" type="line" smooth="yes"/>
      <point x="706" y="20"/>
      <point x="741" y="-2"/>
      <point x="730" y="-74" type="curve" smooth="yes"/>
      <point x="723" y="-120"/>
      <point x="674" y="-137"/>
    </contour>
    <contour>
      <point x="533" y="579" type="curve" smooth="yes"/>
      <point x="464" y="579"/>
      <point x="457" y="650"/>
      <point x="457" y="787" type="curve" smooth="yes"/>
      <point x="457" y="918"/>
      <point x="454" y="994"/>
      <point x="532" y="994" type="curve" smooth="yes"/>
      <point x="609" y="994"/>
      <point x="612" y="937"/>
      <point x="612" y="787" type="curve" smooth="yes"/>
      <point x="612" y="640"/>
      <point x="603" y="579"/>
    </contour>
  </outline>
</glyph>
<glyph name="o" format="1">
  <advance width="1025"/>
  <unicode hex="006F"/>
  <outline>
    <contour>
      <point x="511" y="218" type="curve" smooth="yes"/>
      <point x="464" y="218"/>
      <point x="439" y="250"/>
      <point x="439" y="326" type="curve" smooth="yes"/>
      <point x="439" y="858" type="line" smooth="yes"/>
      <point x="439" y="934"/>
      <point x="464" y="966"/>
      <point x="511" y="966" type="curve" smooth="yes"/>
      <point x="561" y="966"/>
      <point x="586" y="936"/>
      <point x="586" y="858" type="curve" smooth="yes"/>
      <point x="586" y="326" type="line" smooth="yes"/>
      <point x="586" y="248"/>
      <point x="561" y="218"/>
    </contour>
    <contour>
      <point x="510" y="-22" type="curve" smooth="yes"/>
      <point x="759" y="-22"/>
      <point x="947" y="96"/>
      <point x="947" y="352" type="curve" smooth="yes"/>
      <point x="947" y="832" type="line" smooth="yes"/>
      <point x="947" y="1087"/>
      <point x="759" y="1206"/>
      <point x="510" y="1206" type="curve" smooth="yes"/>
      <point x="261" y="1206"/>
      <point x="78" y="1087"/>
      <point x="78" y="832" type="curve" smooth="yes"/>
      <point x="78" y="352" type="line" smooth="yes"/>
      <point x="78" y="97"/>
      <point x="261" y="-22"/>
    </contour>
  </outline>
</glyph>
<glyph name="s" format="1">
  <advance width="897"/>
  <unicode hex="0073"/>
  <outline>
    <contour>
      <point x="473" y="-22" type="curve" smooth="yes"/>
      <point x="669" y="-22"/>
      <point x="866" y="96"/>
      <point x="866" y="305" type="curve" smooth="yes"/>
      <point x="866" y="457"/>
      <point x="745" y="554"/>
      <point x="638" y="646" type="curve"/>
      <point x="592" y="685" type="line" smooth="yes"/>
      <point x="499" y="765"/>
      <point x="391" y="841"/>
      <point x="396" y="899" type="curve" smooth="yes"/>
      <point x="397" y="926"/>
      <point x="420" y="956"/>
      <point x="468" y="952" type="curve" smooth="yes"/>
      <point x="530" y="947"/>
      <point x="590" y="855"/>
      <point x="614" y="790" type="curve"/>
      <point x="850" y="904" type="line"/>
      <point x="785" y="1104"/>
      <point x="643" y="1206"/>
      <point x="446" y="1206" type="curve" smooth="yes"/>
      <point x="248" y="1206"/>
      <point x="64" y="1064"/>
      <point x="64" y="868" type="curve"/>
      <point x="62" y="741"/>
      <point x="179" y="606"/>
      <point x="284" y="517" type="curve" smooth="yes"/>
      <point x="336" y="473" type="line" smooth="yes"/>
      <point x="414" y="407"/>
      <point x="518" y="335"/>
      <point x="519" y="287" type="curve" smooth="yes"/>
      <point x="520" y="250"/>
      <point x="494" y="225"/>
      <point x="463" y="221" type="curve" smooth="yes"/>
      <point x="398" y="213"/>
      <point x="329" y="285"/>
      <point x="279" y="379" type="curve"/>
      <point x="36" y="264" type="line"/>
      <point x="140" y="51"/>
      <point x="273" y="-22"/>
    </contour>
  </outline>
</glyph>
<glyph name="asciitilde" format="1">
  <advance width="1006"/>
  <unicode hex="007E"/>
  <outline>
    <contour>
      <point x="689" y="663" type="curve" smooth="yes"/>
      <point x="789" y="663"/>
      <point x="895" y="779"/>
      <point x="937" y="891" type="curve"/>
      <point x="811" y="1015" type="line"/>
      <point x="767" y="960"/>
      <point x="710" y="913"/>
      <point x="674" y="913" type="curve" smooth="yes"/>
      <point x="605" y="913"/>
      <point x="445" y="1033"/>
      <point x="325" y="1033" type="curve" smooth="yes"/>
      <point x="231" y="1033"/>
      <point x="135" y="925"/>
      <point x="85" y="829" type="curve"/>
      <point x="198" y="680" type="line"/>
      <point x="243" y="752"/>
      <point x="307" y="785"/>
      <point x="335" y="785" type="curve" smooth="yes"/>
      <point x="409" y="785"/>
      <point x="569" y="663"/>
    </contour>
  </outline>
</glyph>
<glyph name="guillemotleft" format="1">
  <advance width="1017"/>
  <unicode hex="00AB"/>
  <outline>
    <contour>
      <point x="501" y="73" type="line"/>
      <point x="501" y="407" type="line"/>
      <point x="282" y="614" type="line"/>
      <point x="501" y="823" type="line"/>
      <point x="501" y="1157" type="line"/>
      <point x="79" y="673" type="line"/>
      <point x="79" y="557" type="line"/>
    </contour>
    <contour>
      <point x="958" y="73" type="line"/>
      <point x="958" y="407" type="line"/>
      <point x="737" y="614" type="line"/>
      <point x="958" y="823" type="line"/>
      <point x="958" y="1157" type="line"/>
      <point x="534" y="673" type="line"/>
      <point x="534" y="557" type="line"/>
    </contour>
  </outline>
</glyph>
<glyph name="degree" format="1">
  <advance width="1158"/>
  <unicode hex="00B0"/>
  <outline>
    <contour>
      <point x="578" y="1027" type="curve" smooth="yes"/>
      <point x="445" y="1027"/>
      <point x="369" y="1125"/>
      <point x="369" y="1260" type="curve" smooth="yes"/>
      <point x="369" y="1397"/>
      <point x="445" y="1490"/>
      <point x="578" y="1490" type="curve" smooth="yes"/>
      <point x="713" y="1490"/>
      <point x="787" y="1395"/>
      <point x="787" y="1260" type="curve" smooth="yes"/>
      <point x="787" y="1124"/>
      <point x="712" y="1027"/>
    </contour>
    <contour>
      <point x="578" y="836" type="curve" smooth="yes"/>
      <point x="838" y="836"/>
      <point x="1011" y="1006"/>
      <point x="1011" y="1260" type="curve" smooth="yes"/>
      <point x="1011" y="1516"/>
      <point x="835" y="1683"/>
      <point x="578" y="1683" type="curve" smooth="yes"/>
      <point x="321" y="1683"/>
      <point x="147" y="1516"/>
      <point x="147" y="1260" type="curve" smooth="yes"/>
      <point x="147" y="1007"/>
      <point x="320" y="836"/>
    </contour>
  </outline>
</glyph>
<glyph name="guillemotright" format="1">
  <advance width="1019"/>
  <unicode hex="00BB"/>
  <outline>
    <contour>
      <point x="83" y="73" type="line"/>
      <point x="508" y="557" type="line"/>
      <point x="508" y="673" type="line"/>
      <point x="83" y="1157" type="line"/>
      <point x="83" y="823" type="line"/>
      <point x="305" y="616" type="line"/>
      <point x="83" y="407" type="line"/>
    </contour>
    <contour>
      <point x="540" y="73" type="line"/>
      <point x="963" y="557" type="line"/>
      <point x="963" y="673" type="line"/>
      <point x="540" y="1157" type="line"/>
      <point x="540" y="823" type="line"/>
      <point x="760" y="616" type="line"/>
      <point x="540" y="407" type="line"/>
    </contour>
  </outline>
</glyph>
<glyph name="germandbls" format="1">
  <advance width="1126"/>
  <unicode hex="00DF"/>
  <outline>
    <contour>
      <point x="538" y="-34" type="line"/>
      <point x="876" y="-34"/>
      <point x="1095" y="94"/>
      <point x="1095" y="460" type="curve" smooth="yes"/>
      <point x="1095" y="653"/>
      <point x="963" y="818"/>
      <point x="742" y="882" type="curve"/>
      <point x="928" y="953"/>
      <point x="996" y="1083"/>
      <point x="996" y="1232" type="curve" smooth="yes"/>
      <point x="996" y="1515"/>
      <point x="859" y="1686"/>
      <point x="533" y="1686" type="curve" smooth="yes"/>
      <point x="195" y="1686"/>
      <point x="87" y="1440"/>
      <point x="86" y="1217" type="curve" smooth="yes"/>
      <point x="86" y="0" type="line"/>
      <point x="453" y="0" type="line"/>
      <point x="453" y="1217" type="line" smooth="yes"/>
      <point x="449" y="1347"/>
      <point x="478" y="1439"/>
      <point x="563" y="1439" type="curve" smooth="yes"/>
      <point x="629" y="1439"/>
      <point x="693" y="1376"/>
      <point x="693" y="1225" type="curve" smooth="yes"/>
      <point x="693" y="1054"/>
      <point x="638" y="984"/>
      <point x="557" y="984" type="curve"/>
      <point x="560" y="706" type="line"/>
      <point x="641" y="706"/>
      <point x="721" y="624"/>
      <point x="730" y="512" type="curve" smooth="yes"/>
      <point x="747" y="302"/>
      <point x="658" y="240"/>
      <point x="538" y="240" type="curve"/>
    </contour>
  </outline>
</glyph>
<glyph name="Dcroat" format="1">
  <advance width="1244"/>
  <unicode hex="0110"/>
  <outline>
    <contour>
      <point x="525" y="280" type="line"/>
      <point x="525" y="757" type="line"/>
      <point x="619" y="757" type="line"/>
      <point x="619" y="936" type="line"/>
      <point x="525" y="936" type="line"/>
      <point x="525" y="1378" type="line"/>
      <point x="584" y="1378" type="line" smooth="yes"/>
      <point x="723" y="1378"/>
      <point x="737" y="1334"/>
      <point x="737" y="1220" type="curve" smooth="yes"/>
      <point x="737" y="442" type="line" smooth="yes"/>
      <point x="737" y="327"/>
      <point x="724" y="280"/>
      <point x="584" y="280" type="curve" smooth="yes"/>
    </contour>
    <contour>
      <point x="131" y="0" type="line"/>
      <point x="569" y="0" type="line" smooth="yes"/>
      <point x="1020" y="0"/>
      <point x="1145" y="151"/>
      <point x="1145" y="531" type="curve" smooth="yes"/>
      <point x="1145" y="1129" type="line" smooth="yes"/>
      <point x="1145" y="1508"/>
      <point x="1021" y="1658"/>
      <point x="568" y="1658" type="curve" smooth="yes"/>
      <point x="131" y="1658" type="line"/>
      <point x="131" y="936" type="line"/>
      <point x="24" y="936" type="line"/>
      <point x="24" y="757" type="line"/>
      <point x="131" y="757" type="line"/>
    </contour>
  </outline>
</glyph>
<glyph name="uni0237" format="1">
  <advance width="575"/>
  <unicode hex="0237"/>
  <outline>
    <contour>
      <point x="-18" y="-360" type="line"/>
      <point x="44" y="-377"/>
      <point x="108" y="-390"/>
      <point x="179" y="-390" type="curve" smooth="yes"/>
      <point x="387" y="-390"/>
      <point x="489" y="-252"/>
      <point x="489" y="-64" type="curve" smooth="yes"/>
      <point x="489" y="1184" type="line"/>
      <point x="123" y="1184" type="line"/>
      <point x="123" y="-19" type="line" smooth="yes"/>
      <point x="123" y="-86"/>
      <point x="86" y="-106"/>
      <point x="41" y="-106" type="curve" smooth="yes"/>
      <point x="22" y="-106"/>
      <point x="2" y="-101"/>
      <point x="-18" y="-97" type="curve"/>
    </contour>
  </outline>
</glyph>
<glyph name="hungarumlaut" format="1">
  <advance width="999"/>
  <unicode hex="02DD"/>
  <outline>
    <contour>
      <point x="63" y="1189" type="line"/>
      <point x="251" y="1189" type="line"/>
      <point x="494" y="1658" type="line"/>
      <point x="196" y="1658" type="line"/>
    </contour>
    <contour>
      <point x="456" y="1189" type="line"/>
      <point x="648" y="1189" type="line"/>
      <point x="900" y="1658" type="line"/>
      <point x="591" y="1658" type="line"/>
    </contour>
  </outline>
</glyph>
<glyph name="acutecomb" format="1">
  <advance width="624"/>
  <unicode hex="0301"/>
  <outline>
    <contour>
      <point x="101" y="1243" type="line"/>
      <point x="339" y="1243" type="line"/>
      <point x="606" y="1658" type="line"/>
      <point x="229" y="1658" type="line"/>
    </contour>
  </outline>
</glyph>
<glyph name="uni0311" format="1">
  <advance width="652"/>
  <unicode hex="0311"/>
  <outline>
    <contour>
      <point x="47" y="1420" type="curve"/>
      <point x="196" y="1420" type="line"/>
      <point x="196" y="1486"/>
      <point x="226" y="1520"/>
      <point x="307" y="1520" type="curve" smooth="yes"/>
      <point x="388" y="1520"/>
      <point x="417" y="1487"/>
      <point x="417" y="1420" type="curve"/>
      <point x="567" y="1420" type="line"/>
      <point x="567" y="1578"/>
      <point x="456" y="1658"/>
      <point x="307" y="1658" type="curve" smooth="yes"/>
      <point x="158" y="1658"/>
      <point x="47" y="1577"/>
    </contour>
  </outline>
</glyph>
<glyph name="uni0326" format="1">
  <advance width="451"/>
  <unicode hex="0326"/>
  <outline>
    <contour>
      <point x="101" y="-693" type="line"/>
      <point x="292" y="-691"/>
      <point x="386" y="-570"/>
      <point x="387" y="-351" type="curve" smooth="yes"/>
      <point x="387" y="-67" type="line"/>
      <point x="46" y="-67" type="line"/>
      <point x="46" y="-404" type="line"/>
      <point x="237" y="-404" type="line"/>
      <point x="237" y="-532"/>
      <point x="156" y="-566"/>
      <point x="84" y="-582" type="curve"/>
    </contour>
  </outline>
</glyph>
<glyph name="afii10058" format="1">
  <advance width="1850"/>
  <unicode hex="0409"/>
  <outline>
    <contour>
      <point x="19" y="0" type="line"/>
      <point x="174" y="0" type="line" smooth="yes"/>
      <point x="493" y="-1"/>
      <point x="622" y="99"/>
      <point x="652" y="544" type="curve" smooth="yes"/>
      <point x="705" y="1347" type="line"/>
      <point x="853" y="1347" type="line"/>
      <point x="853" y="0" type="line"/>
      <point x="1289" y="0" type="line" smooth="yes"/>
      <point x="1562" y="0"/>
      <point x="1813" y="57"/>
      <point x="1813" y="478" type="curve" smooth="yes"/>
      <point x="1813" y="795"/>
      <point x="1636" y="955"/>
      <point x="1335" y="955" type="curve" smooth="yes"/>
      <point x="1258" y="955" type="line"/>
      <point x="1258" y="1658" type="line"/>
      <point x="336" y="1658" type="line"/>
      <point x="255" y="553" type="line" smooth="yes"/>
      <point x="236" y="303"/>
      <point x="191" y="281"/>
      <point x="19" y="282" type="curve"/>
    </contour>
    <contour>
      <point x="1258" y="263" type="line"/>
      <point x="1258" y="676" type="line"/>
      <point x="1288" y="676" type="line" smooth="yes"/>
      <point x="1411" y="676"/>
      <point x="1435" y="580"/>
      <point x="1439" y="487" type="curve" smooth="yes"/>
      <point x="1445" y="348"/>
      <point x="1410" y="263"/>
      <point x="1292" y="263" type="curve" smooth="yes"/>
    </contour>
  </outline>
</glyph>
<glyph name="afii10059" format="1">
  <advance width="1741"/>
  <unicode hex="040A"/>
  <outline>
    <contour>
      <point x="1152" y="0" type="line"/>
      <point x="1424" y="0"/>
      <point x="1676" y="57"/>
      <point x="1676" y="478" type="curve" smooth="yes"/>
      <point x="1676" y="795"/>
      <point x="1499" y="955"/>
      <point x="1198" y="955" type="curve" smooth="yes"/>
      <point x="1129" y="955" type="line"/>
      <point x="1129" y="1660" type="line"/>
      <point x="723" y="1660" type="line"/>
      <point x="723" y="984" type="line"/>
      <point x="535" y="984" type="line"/>
      <point x="535" y="1660" type="line"/>
      <point x="130" y="1660" type="line"/>
      <point x="130" y="2" type="line"/>
      <point x="535" y="2" type="line"/>
      <point x="535" y="674" type="line"/>
      <point x="723" y="674" type="line"/>
      <point x="723" y="2" type="line"/>
    </contour>
    <contour>
      <point x="1129" y="263" type="line"/>
      <point x="1129" y="676" type="line"/>
      <point x="1150" y="676" type="line" smooth="yes"/>
      <point x="1274" y="676"/>
      <point x="1298" y="580"/>
      <point x="1302" y="487" type="curve" smooth="yes"/>
      <point x="1308" y="348"/>
      <point x="1273" y="263"/>
      <point x="1154" y="263" type="curve" smooth="yes"/>
    </contour>
  </outline>
</glyph>
<glyph name="afii10022" format="1">
  <advance width="945"/>
  <unicode hex="0415"/>
  <outline>
    <contour>
      <point x="120" y="0" type="line"/>
      <point x="881" y="0" type="line"/>
      <point x="881" y="271" type="line"/>
      <point x="526" y="271" type="line"/>
      <point x="526" y="734" type="line"/>
      <point x="783" y="734" type="line"/>
      <point x="783" y="1016" type="line"/>
      <point x="526" y="1016" type="line"/>
      <point x="526" y="1386" type="line"/>
      <point x="877" y="1386" type="line"/>
      <point x="877" y="1658" type="line"/>
      <point x="120" y="1658" type="line"/>
    </contour>
  </outline>
</glyph>
<glyph name="afii10036" format="1">
  <advance width="947"/>
  <unicode hex="0422"/>
  <outline>
    <contour>
      <point x="271" y="0" type="line"/>
      <point x="677" y="0" type="line"/>
      <point x="677" y="1358" type="line"/>
      <point x="911" y="1358" type="line"/>
      <point x="911" y="1658" type="line"/>
      <point x="37" y="1658" type="line"/>
      <point x="37" y="1358" type="line"/>
      <point x="271" y="1358" type="line"/>
    </contour>
  </outline>
</glyph>
<glyph name="afii10070" format="1">
  <advance width="995"/>
  <unicode hex="0435"/>
  <outline>
    <contour>
      <point x="506" y="-22" type="curve" smooth="yes"/>
      <point x="754" y="-22"/>
      <point x="918" y="95"/>
      <point x="918" y="333" type="curve" smooth="yes"/>
      <point x="918" y="472" type="line"/>
      <point x="582" y="472" type="line"/>
      <point x="582" y="330" type="line" smooth="yes"/>
      <point x="582" y="252"/>
      <point x="541" y="238"/>
      <point x="506" y="238" type="curve" smooth="yes"/>
      <point x="472" y="238"/>
      <point x="441" y="264"/>
      <point x="441" y="341" type="curve" smooth="yes"/>
      <point x="441" y="567" type="line"/>
      <point x="918" y="567" type="line"/>
      <point x="918" y="846" type="line" smooth="yes"/>
      <point x="918" y="1086"/>
      <point x="757" y="1206"/>
      <point x="506" y="1206" type="curve" smooth="yes"/>
      <point x="257" y="1206"/>
      <point x="78" y="1069"/>
      <point x="78" y="831" type="curve" smooth="yes"/>
      <point x="78" y="353" type="line" smooth="yes"/>
      <point x="78" y="115"/>
      <point x="257" y="-22"/>
    </contour>
    <contour>
      <point x="441" y="733" type="line"/>
      <point x="441" y="844" type="line" smooth="yes"/>
      <point x="441" y="923"/>
      <point x="473" y="946"/>
      <point x="506" y="946" type="curve" smooth="yes"/>
      <point x="541" y="946"/>
      <point x="582" y="933"/>
      <point x="582" y="854" type="curve" smooth="yes"/>
      <point x="582" y="733" type="line"/>
    </contour>
  </outline>
</glyph>
<glyph name="afii10079" format="1">
  <advance width="1115"/>
  <unicode hex="043D"/>
  <outline>
    <contour>
      <point x="102" y="0" type="line"/>
      <point x="469" y="0" type="line"/>
      <point x="469" y="488" type="line"/>
      <point x="646" y="488" type="line"/>
      <point x="646" y="0" type="line"/>
      <point x="1013" y="0" type="line"/>
      <point x="1013" y="1184" type="line"/>
      <point x="646" y="1184" type="line"/>
      <point x="646" y="737" type="line"/>
      <point x="469" y="737" type="line"/>
      <point x="469" y="1184" type="line"/>
      <point x="102" y="1184" type="line"/>
    </contour>
  </outline>
</glyph>
<glyph name="afii10085" format="1">
  <advance width="1006"/>
  <unicode hex="0443"/>
  <outline>
    <contour>
      <point x="133" y="-402" type="line"/>
      <point x="570" y="-402"/>
      <point x="589" y="-334"/>
      <point x="670" y="-29" type="curve" smooth="yes"/>
      <point x="991" y="1184" type="line"/>
      <point x="673" y="1184" type="line"/>
      <point x="590" y="807" type="line"/>
      <point x="508" y="440" type="line"/>
      <point x="421" y="807" type="line"/>
      <point x="331" y="1184" type="line"/>
      <point x="23" y="1184" type="line"/>
      <point x="326" y="55" type="line" smooth="yes"/>
      <point x="367" y="-117"/>
      <point x="366" y="-149"/>
      <point x="99" y="-149" type="curve"/>
    </contour>
  </outline>
</glyph>
<glyph name="afii10089" format="1">
  <advance width="1053"/>
  <unicode hex="0447"/>
  <outline>
    <contour>
      <point x="584" y="0" type="line"/>
      <point x="950" y="0" type="line"/>
      <point x="950" y="1184" type="line"/>
      <point x="584" y="1184" type="line"/>
      <point x="584" y="674" type="line"/>
      <point x="576" y="674"/>
      <point x="569" y="674"/>
      <point x="562" y="674" type="curve" smooth="yes"/>
      <point x="466" y="678"/>
      <point x="447" y="713"/>
      <point x="447" y="798" type="curve" smooth="yes"/>
      <point x="447" y="1184" type="line"/>
      <point x="81" y="1184" type="line"/>
      <point x="81" y="772" type="line" smooth="yes"/>
      <point x="81" y="604"/>
      <point x="147" y="476"/>
      <point x="490" y="476" type="curve" smooth="yes"/>
      <point x="520" y="476"/>
      <point x="551" y="477"/>
      <point x="584" y="480" type="curve"/>
    </contour>
  </outline>
</glyph>
<glyph name="afii10101" format="1">
  <advance width="982"/>
  <unicode hex="0454"/>
  <outline>
    <contour>
      <point x="506" y="-22" type="curve" smooth="yes"/>
      <point x="755" y="-22"/>
      <point x="928" y="95"/>
      <point x="928" y="332" type="curve" smooth="yes"/>
      <point x="928" y="451" type="line"/>
      <point x="570" y="451" type="line"/>
      <point x="570" y="330" type="line" smooth="yes"/>
      <point x="570" y="252"/>
      <point x="541" y="238"/>
      <point x="507" y="238" type="curve" smooth="yes"/>
      <point x="474" y="238"/>
      <point x="447" y="261"/>
      <point x="447" y="339" type="curve" smooth="yes"/>
      <point x="447" y="529" type="line"/>
      <point x="715" y="529" type="line"/>
      <point x="715" y="676" type="line"/>
      <point x="447" y="676" type="line"/>
      <point x="447" y="846" type="line" smooth="yes"/>
      <point x="447" y="925"/>
      <point x="474" y="948"/>
      <point x="506" y="948" type="curve" smooth="yes"/>
      <point x="541" y="948"/>
      <point x="570" y="935"/>
      <point x="570" y="856" type="curve" smooth="yes"/>
      <point x="570" y="757" type="line"/>
      <point x="928" y="757" type="line"/>
      <point x="928" y="854" type="line" smooth="yes"/>
      <point x="928" y="1091"/>
      <point x="755" y="1206"/>
      <point x="506" y="1206" type="curve" smooth="yes"/>
      <point x="256" y="1206"/>
      <point x="78" y="1071"/>
      <point x="78" y="833" type="curve" smooth="yes"/>
      <point x="78" y="353" type="line" smooth="yes"/>
      <point x="78" y="115"/>
      <point x="256" y="-22"/>
    </contour>
  </outline>
</glyph>
<glyph name="uni0490" format="1">
  <advance width="993"/>
  <unicode hex="0490"/>
  <outline>
    <contour>
      <point x="130" y="0" type="line"/>
      <point x="535" y="0" type="line"/>
      <point x="535" y="1358" type="line"/>
      <point x="935" y="1358" type="line"/>
      <point x="935" y="1941" type="line"/>
      <point x="700" y="1941" type="line"/>
      <point x="700" y="1658" type="line"/>
      <point x="130" y="1658" type="line"/>
    </contour>
  </outline>
</glyph>
<glyph name="uni04E8" format="1">
  <advance width="1227"/>
  <unicode hex="04E8"/>
  <outline>
    <contour>
      <point x="305" y="743" type="line"/>
      <point x="906" y="743" type="line"/>
      <point x="906" y="989" type="line"/>
      <point x="305" y="989" type="line"/>
    </contour>
    <component base="O"/>
  </outline>
</glyph>
<glyph name="bullet" format="1">
  <advance width="1048"/>
  <unicode hex="2022"/>
  <outline>
    <contour>
      <point x="520" y="333" type="curve" smooth="yes"/>
      <point x="717" y="333"/>
      <point x="928" y="471"/>
      <point x="928" y="750" type="curve" smooth="yes"/>
      <point x="928" y="1032"/>
      <point x="718" y="1174"/>
      <point x="520" y="1174" type="curve" smooth="yes"/>
      <point x="325" y="1174"/>
      <point x="116" y="1037"/>
      <point x="116" y="750" type="curve" smooth="yes"/>
      <point x="116" y="470"/>
      <point x="324" y="333"/>
    </contour>
  </outline>
</glyph>
<glyph name="Euro" format="1">
  <advance width="1184"/>
  <unicode hex="20AC"/>
  <outline>
    <contour>
      <point x="638" y="-26" type="curve" smooth="yes"/>
      <point x="1023" y="-26"/>
      <point x="1133" y="187"/>
      <point x="1133" y="463" type="curve" smooth="yes"/>
      <point x="1133" y="510" type="line"/>
      <point x="734" y="510" type="line"/>
      <point x="734" y="421" type="line" smooth="yes"/>
      <point x="734" y="350"/>
      <point x="732" y="255"/>
      <point x="638" y="255" type="curve" smooth="yes"/>
      <point x="546" y="255"/>
      <point x="538" y="348"/>
      <point x="538" y="421" type="curve" smooth="yes"/>
      <point x="538" y="655" type="line"/>
      <point x="753" y="655" type="line"/>
      <point x="753" y="770" type="line"/>
      <point x="538" y="770" type="line"/>
      <point x="538" y="868" type="line"/>
      <point x="753" y="868" type="line"/>
      <point x="753" y="982" type="line"/>
      <point x="538" y="982" type="line"/>
      <point x="538" y="1237" type="line" smooth="yes"/>
      <point x="538" y="1309"/>
      <point x="544" y="1403"/>
      <point x="638" y="1403" type="curve" smooth="yes"/>
      <point x="732" y="1403"/>
      <point x="734" y="1309"/>
      <point x="734" y="1238" type="curve" smooth="yes"/>
      <point x="734" y="1099" type="line"/>
      <point x="1133" y="1099" type="line"/>
      <point x="1133" y="1205" type="line" smooth="yes"/>
      <point x="1133" y="1481"/>
      <point x="1022" y="1684"/>
      <point x="638" y="1684" type="curve" smooth="yes"/>
      <point x="252" y="1684"/>
      <point x="125" y="1475"/>
      <point x="125" y="1128" type="curve" smooth="yes"/>
      <point x="125" y="982" type="line"/>
      <point x="26" y="982" type="line"/>
      <point x="26" y="868" type="line"/>
      <point x="125" y="868" type="line"/>
      <point x="125" y="770" type="line"/>
      <point x="26" y="770" type="line"/>
      <point x="26" y="655" type="line"/>
      <point x="125" y="655" type="line"/>
      <point x="125" y="529" type="line" smooth="yes"/>
      <point x="125" y="184"/>
      <point x="252" y="-26"/>
    </contour>
  </outline>
</glyph>
<glyph name="estimated" format="1">
  <advance width="980"/>
  <unicode hex="212E"/>
  <outline>
    <contour>
      <point x="506" y="-22" type="curve" smooth="yes"/>
      <point x="754" y="-22"/>
      <point x="916" y="55"/>
      <point x="916" y="292" type="curve" smooth="yes"/>
      <point x="916" y="472" type="line"/>
      <point x="657" y="472" type="line"/>
      <point x="657" y="209" type="line" smooth="yes"/>
      <point x="657" y="129"/>
      <point x="643" y="61"/>
      <point x="517" y="61" type="curve" smooth="yes"/>
      <point x="392" y="61"/>
      <point x="378" y="133"/>
      <point x="378" y="212" type="curve" smooth="yes"/>
      <point x="378" y="567" type="line"/>
      <point x="916" y="567" type="line"/>
      <point x="916" y="886" type="line" smooth="yes"/>
      <point x="916" y="1126"/>
      <point x="755" y="1206"/>
      <point x="505" y="1206" type="curve" smooth="yes"/>
      <point x="255" y="1206"/>
      <point x="76" y="1109"/>
      <point x="76" y="871" type="curve" smooth="yes"/>
      <point x="76" y="304" type="line" smooth="yes"/>
      <point x="76" y="65"/>
      <point x="256" y="-22"/>
    </contour>
    <contour>
      <point x="378" y="663" type="line"/>
      <point x="378" y="1000" type="line" smooth="yes"/>
      <point x="378" y="1079"/>
      <point x="399" y="1126"/>
      <point x="511" y="1126" type="curve" smooth="yes"/>
      <point x="624" y="1126"/>
      <point x="654" y="1080"/>
      <point x="654" y="1001" type="curve" smooth="yes"/>
      <point x="654" y="663" type="line"/>
    </contour>
  </outline>
</glyph>
<glyph name="minus" format="1">
  <advance width="1017"/>
  <unicode hex="2212"/>
  <outline>
    <contour>
      <point x="156" y="671" type="line"/>
      <point x="862" y="671" type="line"/>
      <point x="862" y="910" type="line"/>
      <point x="156" y="910" type="line"/>
    </contour>
  </outline>
</glyph>
<glyph name="notequal" format="1">
  <advance width="948"/>
  <unicode hex="2260"/>
  <outline>
    <contour>
      <point x="124" y="0" type="line"/>
      <point x="299" y="0" type="line"/>
      <point x="453" y="487" type="line"/>
      <point x="815" y="487" type="line"/>
      <point x="815" y="700" type="line"/>
      <point x="521" y="700" type="line"/>
      <point x="579" y="883" type="line"/>
      <point x="815" y="883" type="line"/>
      <point x="815" y="1096" type="line"/>
      <point x="647" y="1096" type="line"/>
      <point x="825" y="1658" type="line"/>
      <point x="649" y="1658" type="line"/>
      <point x="471" y="1096" type="line"/>
      <point x="157" y="1096" type="line"/>
      <point x="157" y="883" type="line"/>
      <point x="403" y="883" type="line"/>
      <point x="345" y="700" type="line"/>
      <point x="157" y="700" type="line"/>
      <point x="157" y="487" type="line"/>
      <point x="278" y="487" type="line"/>
    </contour>
  </outline>
</glyph>
